<svg width="25" height="25" viewBox="0 0 25 25" fill="none" xmlns="http://www.w3.org/2000/svg">
<g clip-path="url(#clip0_1_810)">
<path d="M12.5 25C19.4036 25 25 19.4036 25 12.5C25 5.59647 19.4036 3.05176e-05 12.5 3.05176e-05C5.59648 3.05176e-05 3.8147e-05 5.59647 3.8147e-05 12.5C3.8147e-05 19.4036 5.59648 25 12.5 25Z" fill="#3C5A9A"/>
<path d="M16.5644 3.83688H13.7954C12.1521 3.83688 10.3243 4.52801 10.3243 6.90997C10.3324 7.73994 10.3243 8.5348 10.3243 9.42937H8.42332V12.4545H10.3832V21.1632H13.9845V12.397H16.3615L16.5765 9.42088H13.9224C13.9224 9.42088 13.9284 8.09698 13.9224 7.71252C13.9224 6.77122 14.9019 6.82513 14.9608 6.82513C15.4269 6.82513 16.3331 6.82648 16.5658 6.82513V3.83688H16.5644Z" fill="white"/>
</g>
<defs>
<clipPath id="clip0_1_810">
<rect width="25" height="25" fill="white"/>
</clipPath>
</defs>
</svg>
