<svg width="40" height="40" viewBox="0 0 40 40" fill="none" xmlns="http://www.w3.org/2000/svg">
<g clip-path="url(#clip0_182_1811)">
<path d="M20 40C31.0457 40 40 31.0457 40 20C40 8.9543 31.0457 0 20 0C8.9543 0 0 8.9543 0 20C0 31.0457 8.9543 40 20 40Z" fill="#E21B1B"/>
<path d="M39.8655 22.2894L28.743 11.1669L11.738 28.7975L22.748 39.8075C31.7462 38.57 38.8324 31.3506 39.8655 22.2894Z" fill="#C40606"/>
<path d="M27.6859 29.0263C27.2859 29.0263 26.8865 28.8738 26.5809 28.5688L11.4384 13.4257C10.8278 12.815 10.8278 11.8263 11.4384 11.2163C12.049 10.6063 13.0378 10.6057 13.6478 11.2163L28.7909 26.3594C29.4015 26.97 29.4015 27.9588 28.7909 28.5688C28.4852 28.8738 28.0859 29.0263 27.6859 29.0263Z" fill="white"/>
<path d="M12.5424 29.0263C12.1424 29.0263 11.7431 28.8738 11.4374 28.5688C10.8268 27.9581 10.8268 26.9694 11.4374 26.3594L26.5805 11.2163C27.1912 10.6056 28.1799 10.6056 28.7899 11.2163C29.3999 11.8269 29.4005 12.8156 28.7899 13.4256L13.6474 28.5688C13.3424 28.8738 12.9424 29.0263 12.5424 29.0263Z" fill="white"/>
</g>
<defs>
<clipPath id="clip0_182_1811">
<rect width="40" height="40" fill="white"/>
</clipPath>
</defs>
</svg>
