<svg width="40" height="40" viewBox="0 0 40 40" fill="none" xmlns="http://www.w3.org/2000/svg">
<g clip-path="url(#clip0_182_1782)">
<path d="M20 40C31.0457 40 40 31.0457 40 20C40 8.9543 31.0457 0 20 0C8.9543 0 0 8.9543 0 20C0 31.0457 8.9543 40 20 40Z" fill="#32BA7C"/>
<path d="M14.8897 29.0221L25.1737 39.306C33.691 37.0347 40.0002 29.2744 40.0002 20C40.0002 19.8107 40.0002 19.6214 40.0002 19.4322L31.9244 11.9874L14.8897 29.0221Z" fill="#0AA06E"/>
<path d="M20.5046 24.4795C21.3879 25.3628 21.3879 26.877 20.5046 27.7603L18.6749 29.5899C17.7916 30.4732 16.2775 30.4732 15.3942 29.5899L7.38155 21.5142C6.49827 20.6309 6.49827 19.1167 7.38155 18.2334L9.2112 16.4038C10.0945 15.5205 11.6087 15.5205 12.492 16.4038L20.5046 24.4795Z" fill="white"/>
<path d="M27.5076 10.5363C28.3909 9.65302 29.9051 9.65302 30.7883 10.5363L32.618 12.366C33.5013 13.2492 33.5013 14.7634 32.618 15.6467L18.7379 29.4637C17.8546 30.347 16.3404 30.347 15.4571 29.4637L13.6275 27.6341C12.7442 26.7508 12.7442 25.2366 13.6275 24.3533L27.5076 10.5363Z" fill="white"/>
</g>
<defs>
<clipPath id="clip0_182_1782">
<rect width="40" height="40" fill="white"/>
</clipPath>
</defs>
</svg>
